<?xml version="1.0" encoding="UTF-8"?>
<svg xmlns="http://www.w3.org/2000/svg" xmlns:xlink="http://www.w3.org/1999/xlink" width="678.62pt" height="153.07pt" viewBox="0 0 678.62 153.07" version="1.1">
<g id="surface1">
<path style=" stroke:none;fill-rule:nonzero;fill:rgb(97.647095%,50.98114%,29.019165%);fill-opacity:1;" d="M 643.066406 -0.00390625 C 642.46875 1.332031 641.640625 2.539062 640.890625 3.785156 C 637.269531 9.8125 633.632812 15.828125 629.996094 21.84375 C 624.878906 30.320312 619.757812 38.796875 614.636719 47.269531 C 609.492188 55.785156 604.351562 64.296875 599.207031 72.808594 C 594.109375 81.246094 589.011719 89.683594 583.910156 98.121094 C 578.746094 106.675781 573.578125 115.226562 568.414062 123.777344 C 563.339844 132.175781 558.265625 140.574219 553.1875 148.976562 C 552.730469 149.730469 552.253906 150.476562 551.800781 151.234375 C 551.5 151.734375 551.085938 152 550.5 152.003906 C 550.234375 152.003906 549.96875 152.015625 549.703125 152.015625 C 544.617188 152.015625 539.535156 152.019531 534.449219 152.015625 C 532.707031 152.011719 532.699219 152.007812 532.261719 150.242188 C 529.824219 140.324219 527.390625 130.40625 524.949219 120.492188 C 523.292969 113.753906 521.628906 107.015625 519.96875 100.277344 C 518.65625 94.953125 517.347656 89.632812 516.039062 84.308594 C 514.753906 79.070312 513.46875 73.835938 512.183594 68.597656 C 511.777344 66.933594 511.828125 66.859375 513.539062 66.859375 C 519.242188 66.851562 524.945312 66.851562 530.648438 66.859375 C 532.246094 66.859375 532.3125 66.917969 532.652344 68.507812 C 534.199219 75.769531 535.734375 83.035156 537.285156 90.296875 C 538.71875 96.996094 540.167969 103.691406 541.601562 110.390625 C 542.816406 116.050781 544.019531 121.714844 545.234375 127.378906 C 545.363281 127.980469 545.527344 128.578125 545.691406 129.171875 C 545.746094 129.367188 546.003906 129.421875 546.109375 129.265625 C 546.351562 128.898438 546.589844 128.523438 546.816406 128.144531 C 550.617188 121.816406 554.417969 115.488281 558.222656 109.160156 C 564.121094 99.347656 570.023438 89.539062 575.925781 79.726562 C 578.433594 75.558594 580.9375 71.390625 583.441406 67.222656 C 589.59375 56.996094 595.746094 46.765625 601.898438 36.539062 C 608.960938 24.796875 616.023438 13.050781 623.089844 1.308594 C 623.339844 0.890625 623.628906 0.492188 623.703125 -0.00390625 C 630.15625 -0.00390625 636.613281 -0.00390625 643.066406 -0.00390625 "/>
<path style=" stroke:none;fill-rule:nonzero;fill:rgb(97.647095%,50.98114%,29.019165%);fill-opacity:1;" d="M 678.617188 67.910156 C 678.371094 69.164062 678.113281 70.417969 677.875 71.671875 C 677.3125 74.625 676.769531 77.582031 676.195312 80.53125 C 675.9375 81.878906 675.824219 81.964844 674.449219 81.96875 C 668.96875 81.976562 663.488281 81.972656 658.003906 81.972656 C 653.980469 81.972656 649.960938 81.984375 645.9375 81.96875 C 642.949219 81.957031 640.035156 82.382812 637.207031 83.355469 C 633.003906 84.800781 629.683594 87.394531 627.210938 91.074219 C 625.367188 93.820312 624.152344 96.847656 623.261719 100.011719 C 622.933594 101.175781 623.042969 101.308594 624.28125 101.3125 C 627.507812 101.324219 630.734375 101.320312 633.964844 101.324219 C 645.941406 101.332031 657.921875 101.335938 669.902344 101.34375 C 670.390625 101.34375 670.878906 101.339844 671.359375 101.378906 C 671.890625 101.421875 672.078125 101.636719 672.046875 102.144531 C 672.027344 102.496094 671.976562 102.847656 671.910156 103.195312 C 671.195312 106.972656 670.472656 110.75 669.75 114.527344 C 669.710938 114.742188 669.671875 114.960938 669.628906 115.175781 C 669.386719 116.296875 669.246094 116.421875 668.144531 116.460938 C 667.703125 116.476562 667.261719 116.46875 666.820312 116.46875 C 651.921875 116.46875 637.023438 116.46875 622.125 116.46875 C 621.640625 116.46875 621.152344 116.460938 620.667969 116.5 C 620.097656 116.550781 619.921875 116.734375 619.785156 117.3125 C 619.765625 117.398438 619.757812 117.488281 619.742188 117.574219 C 619.339844 119.980469 619.09375 122.398438 619.253906 124.835938 C 619.367188 126.554688 619.636719 128.257812 620.320312 129.871094 C 621.230469 132.03125 622.6875 133.671875 624.773438 134.765625 C 626.597656 135.722656 628.554688 136.234375 630.566406 136.585938 C 632.1875 136.867188 633.820312 136.898438 635.453125 136.898438 C 644.695312 136.898438 653.933594 136.898438 663.171875 136.898438 C 663.660156 136.902344 664.148438 136.898438 664.628906 136.945312 C 665.179688 137.003906 665.378906 137.285156 665.328125 137.859375 C 665.308594 138.078125 665.257812 138.292969 665.214844 138.511719 C 664.464844 142.460938 663.71875 146.414062 662.964844 150.363281 C 662.65625 151.972656 662.613281 152.015625 660.996094 152.015625 C 650.648438 152.015625 640.304688 152.058594 629.960938 151.980469 C 626.519531 151.953125 623.078125 151.675781 619.6875 150.984375 C 615.761719 150.183594 612.238281 148.542969 609.089844 146.050781 C 604.226562 142.199219 601.371094 137.160156 600.117188 131.152344 C 599.445312 127.9375 599.15625 124.675781 599.324219 121.398438 C 599.539062 117.25 600.0625 113.128906 600.941406 109.058594 C 601.71875 105.472656 602.609375 101.914062 603.824219 98.445312 C 605.515625 93.628906 607.613281 89.007812 610.503906 84.785156 C 613.949219 79.75 618.265625 75.640625 623.628906 72.664062 C 627.535156 70.5 631.695312 69.066406 636.046875 68.15625 C 639.078125 67.523438 642.148438 67.222656 645.242188 67.019531 C 648.160156 66.832031 651.070312 66.871094 653.988281 66.863281 C 661.503906 66.84375 669.015625 66.855469 676.53125 66.859375 C 677.234375 66.859375 677.953125 66.78125 678.617188 67.113281 C 678.617188 67.378906 678.617188 67.644531 678.617188 67.910156 "/>
<path style=" stroke:none;fill-rule:nonzero;fill:rgb(60.00061%,58.824158%,58.432007%);fill-opacity:1;" d="M 0 151.476562 C 0.359375 151.226562 0.445312 150.851562 0.515625 150.445312 C 1.027344 147.441406 1.550781 144.4375 2.070312 141.429688 C 2.832031 137.03125 3.589844 132.632812 4.347656 128.234375 C 5.378906 122.222656 6.40625 116.210938 7.445312 110.203125 C 7.957031 107.242188 8.5 104.285156 8.996094 101.320312 C 9.109375 100.648438 9.425781 100.199219 10 99.863281 C 11.71875 98.851562 13.503906 97.972656 15.316406 97.152344 C 18.132812 95.871094 21.003906 94.71875 24 93.898438 C 25.878906 93.378906 27.789062 93.058594 29.722656 92.796875 C 32.585938 92.402344 35.464844 92.464844 38.328125 92.613281 C 41.292969 92.761719 44.199219 93.367188 46.941406 94.585938 C 49.121094 95.554688 50.992188 96.925781 52.40625 98.875 C 52.457031 98.949219 52.507812 99.019531 52.558594 99.089844 C 52.984375 99.625 53.136719 99.667969 53.636719 99.265625 C 54.636719 98.457031 55.71875 97.769531 56.832031 97.128906 C 60.785156 94.851562 65.015625 93.40625 69.550781 92.800781 C 72.328125 92.425781 75.113281 92.472656 77.890625 92.617188 C 80.367188 92.742188 82.800781 93.261719 85.113281 94.207031 C 88.253906 95.492188 90.734375 97.539062 92.222656 100.636719 C 93.132812 102.527344 93.597656 104.554688 93.664062 106.65625 C 93.707031 108.023438 93.691406 109.398438 93.65625 110.765625 C 93.621094 112.230469 93.34375 113.667969 93.097656 115.101562 C 92.203125 120.375 91.28125 125.640625 90.375 130.914062 C 89.25 137.445312 88.128906 143.976562 87.011719 150.511719 C 86.714844 152.253906 86.6875 152.289062 84.894531 152.292969 C 83.125 152.296875 81.359375 152.304688 79.589844 152.289062 C 78.453125 152.277344 78.34375 152.164062 78.515625 151.050781 C 78.761719 149.433594 79.0625 147.824219 79.339844 146.214844 C 80.386719 140.160156 81.4375 134.109375 82.484375 128.054688 C 83.253906 123.613281 84.027344 119.171875 84.777344 114.726562 C 85.15625 112.496094 85.265625 110.242188 85.128906 107.988281 C 84.976562 105.4375 83.964844 103.292969 81.90625 101.703125 C 81.234375 101.183594 80.476562 100.816406 79.675781 100.554688 C 78.328125 100.113281 76.949219 99.804688 75.523438 99.746094 C 74.996094 99.726562 74.46875 99.652344 73.941406 99.613281 C 73.542969 99.582031 73.144531 99.527344 72.75 99.550781 C 69.648438 99.714844 66.59375 100.117188 63.683594 101.300781 C 61.28125 102.277344 59.074219 103.527344 57.28125 105.449219 C 56.042969 106.773438 55.175781 108.273438 54.863281 110.074219 C 54.203125 113.863281 53.542969 117.652344 52.890625 121.441406 C 52.132812 125.839844 51.382812 130.238281 50.625 134.636719 C 49.691406 140.039062 48.726562 145.433594 47.828125 150.839844 C 47.589844 152.273438 47.234375 152.292969 46.113281 152.292969 C 44.300781 152.292969 42.488281 152.292969 40.675781 152.292969 C 40.453125 152.292969 40.230469 152.285156 40.011719 152.261719 C 39.625 152.214844 39.433594 152.023438 39.460938 151.65625 C 39.492188 151.21875 39.546875 150.777344 39.625 150.34375 C 40.832031 143.332031 42.039062 136.320312 43.257812 129.308594 C 44.164062 124.082031 45.070312 118.859375 45.996094 113.636719 C 46.339844 111.710938 46.492188 109.78125 46.410156 107.832031 C 46.363281 106.710938 46.097656 105.644531 45.65625 104.621094 C 44.921875 102.910156 43.660156 101.722656 41.957031 101.007812 C 40.191406 100.265625 38.34375 99.855469 36.425781 99.75 C 35.71875 99.710938 35.015625 99.644531 34.3125 99.59375 C 34.003906 99.574219 33.691406 99.53125 33.386719 99.554688 C 30.292969 99.773438 27.230469 100.128906 24.273438 101.144531 C 22.179688 101.863281 20.09375 102.585938 18.082031 103.507812 C 17.917969 103.578125 17.757812 103.652344 17.59375 103.71875 C 16.921875 103.992188 16.574219 104.472656 16.460938 105.210938 C 16.15625 107.175781 15.78125 109.128906 15.445312 111.089844 C 14.675781 115.53125 13.90625 119.972656 13.144531 124.417969 C 12.117188 130.382812 11.097656 136.351562 10.074219 142.316406 C 9.609375 145.019531 9.144531 147.71875 8.675781 150.417969 C 8.613281 150.765625 8.539062 151.113281 8.464844 151.460938 C 8.363281 151.953125 8.074219 152.238281 7.558594 152.265625 C 7.339844 152.277344 7.117188 152.292969 6.898438 152.292969 C 4.597656 152.289062 2.300781 152.28125 0 152.273438 C 0 152.007812 0 151.742188 0 151.476562 "/>
<path style=" stroke:none;fill-rule:nonzero;fill:rgb(60.00061%,58.824158%,58.432007%);fill-opacity:1;" d="M 133.21875 146.179688 C 134.734375 146.175781 136.097656 146.140625 137.457031 145.902344 C 142.867188 144.953125 147.453125 142.433594 151.230469 138.5 C 154.105469 135.507812 156.28125 132.015625 157.691406 128.097656 C 159.214844 123.859375 160.085938 119.515625 159.4375 114.96875 C 158.808594 110.546875 157.164062 106.652344 153.851562 103.539062 C 151.433594 101.261719 148.613281 99.839844 145.355469 99.214844 C 143.734375 98.902344 142.105469 98.964844 140.472656 98.945312 C 139.003906 98.929688 137.570312 99.171875 136.140625 99.480469 C 133.960938 99.949219 131.953125 100.851562 129.980469 101.867188 C 126.863281 103.480469 124.308594 105.773438 122.105469 108.453125 C 120.042969 110.964844 118.507812 113.800781 117.417969 116.867188 C 115.816406 121.382812 114.992188 125.992188 115.6875 130.792969 C 115.953125 132.632812 116.328125 134.453125 117.089844 136.160156 C 119.484375 141.566406 123.550781 144.867188 129.40625 145.933594 C 130.722656 146.171875 132.042969 146.164062 133.21875 146.179688 Z M 127.605469 153.070312 C 127.296875 152.878906 126.9375 152.855469 126.589844 152.789062 C 122.421875 152.011719 118.679688 150.304688 115.421875 147.582031 C 113.609375 146.0625 112.128906 144.253906 110.914062 142.230469 C 108.90625 138.875 107.773438 135.242188 107.394531 131.351562 C 107.285156 130.210938 107.136719 129.070312 107.1875 127.917969 C 107.390625 123.378906 108.257812 118.988281 109.984375 114.765625 C 111.625 110.75 113.933594 107.15625 116.757812 103.902344 C 119.238281 101.050781 122.144531 98.679688 125.390625 96.730469 C 128.71875 94.730469 132.269531 93.304688 136.070312 92.523438 C 137.28125 92.273438 138.503906 92.085938 139.742188 92.015625 C 140.535156 91.96875 141.328125 91.808594 142.117188 91.816406 C 145.847656 91.855469 149.527344 92.269531 153.046875 93.59375 C 156.019531 94.714844 158.703125 96.328125 160.980469 98.542969 C 163.285156 100.789062 165.019531 103.441406 166.164062 106.46875 C 167.527344 110.078125 168.101562 113.820312 167.902344 117.652344 C 167.65625 122.367188 166.652344 126.921875 164.796875 131.28125 C 163.46875 134.394531 161.730469 137.253906 159.636719 139.898438 C 156.777344 143.507812 153.320312 146.429688 149.328125 148.722656 C 146.863281 150.140625 144.261719 151.230469 141.527344 152.003906 C 140.34375 152.339844 139.121094 152.558594 137.910156 152.808594 C 137.5625 152.878906 137.207031 152.886719 136.890625 153.070312 C 133.796875 153.070312 130.699219 153.070312 127.605469 153.070312 "/>
<path style=" stroke:none;fill-rule:nonzero;fill:rgb(97.647095%,50.98114%,29.019165%);fill-opacity:1;" d="M 432.210938 152.003906 C 428.363281 152.003906 424.515625 152.082031 420.675781 151.984375 C 417.011719 151.890625 413.347656 151.679688 409.738281 150.960938 C 406.53125 150.320312 403.535156 149.175781 400.980469 147.078125 C 396.722656 143.585938 393.929688 139.214844 393.101562 133.695312 C 392.691406 130.96875 392.777344 128.230469 393.019531 125.5 C 393.472656 120.429688 394.589844 115.464844 395.53125 110.472656 C 397.007812 102.617188 398.503906 94.761719 399.996094 86.90625 C 401.152344 80.828125 402.308594 74.753906 403.46875 68.675781 C 403.542969 68.289062 403.636719 67.898438 403.734375 67.515625 C 403.835938 67.128906 404.117188 66.925781 404.503906 66.894531 C 404.855469 66.867188 405.210938 66.855469 405.5625 66.855469 C 410.378906 66.855469 415.195312 66.851562 420.015625 66.855469 C 421.867188 66.859375 421.898438 66.898438 421.546875 68.738281 C 420.183594 75.898438 418.816406 83.058594 417.453125 90.21875 C 416.03125 97.683594 414.59375 105.144531 413.195312 112.613281 C 412.535156 116.128906 411.796875 119.632812 411.382812 123.191406 C 411.160156 125.078125 410.980469 126.964844 411.230469 128.867188 C 411.382812 130.023438 411.707031 131.121094 412.367188 132.085938 C 413.695312 134.03125 415.417969 135.5 417.652344 136.332031 C 419.070312 136.863281 420.539062 137.183594 422.035156 137.332031 C 423.792969 137.503906 425.550781 137.667969 427.324219 137.65625 C 433.640625 137.628906 439.960938 137.644531 446.28125 137.644531 C 446.636719 137.644531 446.988281 137.640625 447.34375 137.648438 C 448.757812 137.667969 448.835938 137.761719 448.558594 139.207031 C 447.878906 142.808594 447.195312 146.414062 446.507812 150.015625 C 446.433594 150.40625 446.335938 150.792969 446.25 151.179688 C 446.144531 151.675781 445.839844 151.949219 445.335938 151.980469 C 444.9375 152.007812 444.539062 152.015625 444.140625 152.015625 C 440.164062 152.015625 436.1875 152.015625 432.210938 152.015625 C 432.210938 152.011719 432.210938 152.007812 432.210938 152.003906 "/>
<path style=" stroke:none;fill-rule:nonzero;fill:rgb(60.00061%,58.824158%,58.432007%);fill-opacity:1;" d="M 207.78125 145.558594 C 208.914062 145.683594 209.871094 145.441406 210.839844 145.390625 C 213.757812 145.230469 216.496094 144.378906 219.082031 143.089844 C 222.746094 141.265625 225.730469 138.601562 228.078125 135.246094 C 230.332031 132.023438 231.882812 128.476562 232.910156 124.695312 C 233.441406 122.730469 233.84375 120.734375 233.960938 118.703125 C 234.050781 117.121094 234.128906 115.542969 234.023438 113.945312 C 233.90625 112.117188 233.605469 110.347656 232.996094 108.632812 C 231.417969 104.179688 228.394531 101.1875 223.890625 99.695312 C 222.453125 99.222656 220.96875 99.085938 219.476562 98.878906 C 217.558594 98.613281 215.683594 98.851562 213.808594 99.101562 C 210.882812 99.492188 208.179688 100.542969 205.605469 101.980469 C 202.105469 103.933594 199.261719 106.597656 197.003906 109.886719 C 194.902344 112.957031 193.574219 116.355469 192.886719 120.003906 C 192.46875 122.214844 192.101562 124.4375 191.714844 126.65625 C 191.085938 130.3125 190.476562 133.972656 189.816406 137.625 C 189.671875 138.425781 189.84375 138.996094 190.515625 139.441406 C 191.328125 139.976562 192.117188 140.546875 192.929688 141.074219 C 197.492188 144.035156 202.46875 145.632812 207.78125 145.558594 Z M 196.210938 100.933594 C 197.359375 100.195312 198.226562 99.320312 199.183594 98.535156 C 201.769531 96.414062 204.601562 94.738281 207.746094 93.578125 C 211.949219 92.023438 216.285156 91.316406 220.753906 91.535156 C 224.316406 91.707031 227.789062 92.390625 230.984375 94.03125 C 235.746094 96.476562 239.125 100.179688 240.925781 105.265625 C 241.609375 107.191406 242.011719 109.175781 242.269531 111.199219 C 242.4375 112.519531 242.488281 113.839844 242.488281 115.167969 C 242.492188 117.382812 242.214844 119.574219 241.820312 121.75 C 240.558594 128.679688 237.707031 134.867188 233.183594 140.289062 C 228.535156 145.859375 222.714844 149.589844 215.714844 151.46875 C 213.964844 151.9375 212.175781 152.199219 210.359375 152.34375 C 209.082031 152.445312 207.808594 152.558594 206.523438 152.523438 C 202.050781 152.398438 197.753906 151.515625 193.710938 149.539062 C 192.957031 149.171875 192.199219 148.8125 191.441406 148.457031 C 189.441406 147.507812 188.097656 148.1875 187.652344 150.378906 C 187.59375 150.679688 187.589844 150.992188 187.535156 151.296875 C 187.410156 152.023438 187.214844 152.210938 186.511719 152.277344 C 186.335938 152.292969 186.15625 152.292969 185.980469 152.292969 C 184.300781 152.292969 182.621094 152.292969 180.941406 152.292969 C 180.761719 152.292969 180.585938 152.289062 180.410156 152.269531 C 179.945312 152.21875 179.765625 152.03125 179.792969 151.589844 C 179.8125 151.238281 179.855469 150.886719 179.917969 150.539062 C 180.535156 147.058594 181.160156 143.578125 181.777344 140.097656 C 182.71875 134.789062 183.65625 129.480469 184.59375 124.171875 C 185.347656 119.90625 186.09375 115.640625 186.847656 111.375 C 188.160156 103.933594 189.46875 96.488281 190.789062 89.050781 C 191.878906 82.914062 192.984375 76.78125 194.078125 70.648438 C 194.226562 69.820312 194.335938 68.988281 194.496094 68.164062 C 194.660156 67.3125 194.882812 67.101562 195.734375 67.089844 C 197.636719 67.066406 199.539062 67.082031 201.4375 67.085938 C 201.570312 67.085938 201.703125 67.101562 201.832031 67.132812 C 202.125 67.203125 202.308594 67.398438 202.28125 67.699219 C 202.234375 68.226562 202.164062 68.753906 202.066406 69.273438 C 200.992188 75.050781 199.902344 80.828125 198.828125 86.605469 C 198.003906 91.039062 197.191406 95.472656 196.371094 99.902344 C 196.308594 100.246094 196.265625 100.589844 196.210938 100.933594 "/>
<path style=" stroke:none;fill-rule:nonzero;fill:rgb(97.647095%,50.98114%,29.019165%);fill-opacity:1;" d="M 472.851562 152.015625 C 470.421875 152.015625 467.988281 152.015625 465.558594 152.015625 C 465.25 152.015625 464.941406 152.023438 464.632812 152.007812 C 463.5625 151.960938 463.390625 151.761719 463.585938 150.710938 C 464.335938 146.714844 465.097656 142.722656 465.851562 138.730469 C 467.34375 130.875 468.828125 123.019531 470.320312 115.164062 C 471.507812 108.914062 472.703125 102.667969 473.890625 96.417969 C 475.246094 89.300781 476.601562 82.183594 477.953125 75.066406 C 478.339844 73.027344 478.707031 70.984375 479.089844 68.945312 C 479.160156 68.554688 479.238281 68.160156 479.339844 67.777344 C 479.527344 67.085938 479.714844 66.933594 480.453125 66.875 C 480.761719 66.847656 481.070312 66.855469 481.378906 66.855469 C 486.375 66.855469 491.367188 66.851562 496.359375 66.859375 C 496.800781 66.859375 497.242188 66.882812 497.679688 66.941406 C 498.015625 66.984375 498.21875 67.257812 498.195312 67.601562 C 498.175781 67.953125 498.113281 68.300781 498.046875 68.648438 C 497.226562 72.988281 496.398438 77.328125 495.574219 81.667969 C 494.085938 89.523438 492.601562 97.378906 491.105469 105.234375 C 489.902344 111.566406 488.6875 117.902344 487.480469 124.238281 C 486.234375 130.789062 484.996094 137.34375 483.757812 143.898438 C 483.347656 146.066406 482.949219 148.242188 482.546875 150.414062 C 482.265625 151.925781 482.183594 152.007812 480.671875 152.011719 C 478.066406 152.023438 475.457031 152.015625 472.851562 152.015625 "/>
<path style=" stroke:none;fill-rule:nonzero;fill:rgb(60.00061%,58.824158%,58.432007%);fill-opacity:1;" d="M 345.765625 116.992188 C 351.601562 116.992188 357.4375 116.992188 363.273438 116.988281 C 363.714844 116.988281 364.15625 116.984375 364.597656 116.941406 C 365.007812 116.898438 365.210938 116.671875 365.277344 116.25 C 365.308594 116.035156 365.308594 115.8125 365.320312 115.589844 C 365.441406 113.222656 365.109375 110.914062 364.398438 108.660156 C 363.75 106.613281 362.753906 104.738281 361.34375 103.121094 C 359.574219 101.085938 357.296875 99.851562 354.671875 99.304688 C 352.242188 98.796875 349.800781 98.570312 347.296875 98.902344 C 345.125 99.195312 343.039062 99.734375 341.0625 100.632812 C 337.644531 102.183594 334.648438 104.324219 332.199219 107.21875 C 330.125 109.671875 328.460938 112.355469 327.238281 115.324219 C 326.546875 117.011719 326.773438 116.996094 328.390625 116.996094 C 334.179688 116.988281 339.972656 116.992188 345.765625 116.992188 Z M 349.078125 122.550781 C 341.828125 122.550781 334.578125 122.550781 327.332031 122.554688 C 326.84375 122.554688 326.355469 122.550781 325.875 122.597656 C 325.382812 122.644531 325.113281 122.867188 325.066406 123.332031 C 324.90625 124.910156 324.621094 126.488281 324.792969 128.085938 C 324.925781 129.269531 325.070312 130.453125 325.292969 131.625 C 325.828125 134.460938 327.03125 136.992188 328.871094 139.21875 C 329.929688 140.492188 331.234375 141.46875 332.660156 142.296875 C 334.671875 143.464844 336.855469 144.175781 339.148438 144.492188 C 340.546875 144.6875 341.949219 144.84375 343.371094 144.835938 C 348.304688 144.808594 353.011719 143.808594 357.535156 141.84375 C 359.691406 140.90625 361.738281 139.78125 363.753906 138.585938 C 364.773438 137.980469 364.835938 137.996094 365.328125 139.039062 C 365.953125 140.355469 366.554688 141.683594 367.125 143.023438 C 367.472656 143.84375 367.386719 144.082031 366.625 144.5625 C 360.917969 148.179688 354.796875 150.703125 348.039062 151.53125 C 345.714844 151.820312 343.382812 152.070312 341.039062 151.984375 C 337.089844 151.84375 333.214844 151.289062 329.539062 149.707031 C 324.289062 147.445312 320.542969 143.710938 318.371094 138.425781 C 317.117188 135.367188 316.535156 132.175781 316.441406 128.867188 C 316.296875 123.574219 317.253906 118.492188 319.09375 113.554688 C 320.464844 109.878906 322.417969 106.53125 324.855469 103.460938 C 327.433594 100.214844 330.484375 97.472656 334.027344 95.320312 C 338.035156 92.882812 342.328125 91.207031 347.027344 90.660156 C 351.113281 90.179688 355.144531 90.367188 359.109375 91.492188 C 363.550781 92.753906 367.199219 95.199219 369.941406 98.929688 C 371.375 100.875 372.332031 103.054688 372.964844 105.378906 C 373.519531 107.433594 373.824219 109.523438 373.84375 111.660156 C 373.867188 114.136719 373.789062 116.605469 373.382812 119.054688 C 373.292969 119.574219 373.316406 120.113281 373.28125 120.640625 C 373.253906 120.992188 373.242188 121.351562 373.175781 121.695312 C 373.066406 122.234375 372.824219 122.457031 372.277344 122.511719 C 371.839844 122.554688 371.398438 122.550781 370.953125 122.550781 C 363.664062 122.554688 356.371094 122.550781 349.078125 122.550781 "/>
<path style=" stroke:none;fill-rule:nonzero;fill:rgb(60.00061%,58.824158%,58.432007%);fill-opacity:1;" d="M 290.019531 152.277344 C 288.960938 152.277344 287.898438 152.296875 286.839844 152.269531 C 286.242188 152.25 286.050781 152.015625 286.144531 151.40625 C 286.34375 150.097656 286.574219 148.792969 286.804688 147.484375 C 288.277344 139.132812 289.757812 130.777344 291.234375 122.421875 C 292.3125 116.328125 293.382812 110.234375 294.460938 104.144531 C 295.519531 98.136719 296.582031 92.132812 297.640625 86.128906 C 298.628906 80.511719 299.609375 74.898438 300.597656 69.285156 C 300.683594 68.804688 300.777344 68.328125 300.886719 67.851562 C 300.996094 67.359375 301.324219 67.101562 301.832031 67.09375 C 302.449219 67.078125 303.066406 67.070312 303.6875 67.070312 C 304.96875 67.066406 306.25 67.066406 307.53125 67.070312 C 307.84375 67.074219 308.152344 67.085938 308.457031 67.128906 C 308.800781 67.175781 309.011719 67.433594 308.976562 67.78125 C 308.933594 68.265625 308.859375 68.746094 308.773438 69.226562 C 307.394531 77.015625 306.011719 84.800781 304.636719 92.589844 C 303.550781 98.726562 302.46875 104.863281 301.386719 111 C 300.328125 117.003906 299.265625 123.011719 298.207031 129.015625 C 296.949219 136.152344 295.695312 143.292969 294.445312 150.429688 C 294.117188 152.289062 294.125 152.289062 292.277344 152.292969 C 291.523438 152.296875 290.773438 152.292969 290.019531 152.292969 C 290.019531 152.289062 290.019531 152.28125 290.019531 152.277344 "/>
<path style=" stroke:none;fill-rule:nonzero;fill:rgb(60.00061%,58.824158%,58.432007%);fill-opacity:1;" d="M 259.503906 152.292969 C 258.664062 152.292969 257.824219 152.296875 256.984375 152.292969 C 256.675781 152.289062 256.363281 152.277344 256.058594 152.230469 C 255.726562 152.179688 255.535156 151.917969 255.5625 151.558594 C 255.582031 151.296875 255.632812 151.035156 255.679688 150.773438 C 256.175781 147.855469 256.671875 144.9375 257.175781 142.019531 C 258.117188 136.53125 259.054688 131.042969 260.003906 125.558594 C 260.925781 120.246094 261.871094 114.9375 262.792969 109.628906 C 263.535156 105.359375 264.261719 101.09375 264.992188 96.824219 C 265.105469 96.171875 265.210938 95.515625 265.328125 94.863281 C 265.574219 93.515625 265.699219 93.402344 267.046875 93.390625 C 268.59375 93.378906 270.140625 93.386719 271.6875 93.386719 C 272.039062 93.386719 272.394531 93.378906 272.746094 93.40625 C 273.441406 93.460938 273.628906 93.65625 273.546875 94.324219 C 273.449219 95.070312 273.3125 95.808594 273.183594 96.546875 C 271.78125 104.691406 270.382812 112.835938 268.972656 120.976562 C 267.996094 126.636719 267.007812 132.296875 266.019531 137.953125 C 265.269531 142.265625 264.511719 146.574219 263.761719 150.882812 C 263.738281 151.011719 263.730469 151.144531 263.699219 151.273438 C 263.53125 152.066406 263.359375 152.25 262.554688 152.273438 C 261.535156 152.304688 260.519531 152.28125 259.503906 152.28125 C 259.503906 152.285156 259.503906 152.289062 259.503906 152.292969 "/>
<path style=" stroke:none;fill-rule:nonzero;fill:rgb(97.647095%,50.98114%,29.019165%);fill-opacity:1;" d="M 273.160156 66.804688 C 274.277344 66.742188 275.371094 66.824219 276.378906 67.359375 C 278.429688 68.441406 279.542969 70.160156 279.621094 72.457031 C 279.691406 74.578125 279.070312 76.554688 277.902344 78.332031 C 276.921875 79.832031 275.535156 80.804688 273.796875 81.257812 C 272.289062 81.648438 270.78125 81.828125 269.21875 81.492188 C 266.421875 80.890625 264.527344 78.636719 264.460938 75.761719 C 264.425781 74.1875 264.78125 72.703125 265.4375 71.28125 C 266.75 68.433594 269.046875 67.054688 272.101562 66.808594 C 272.453125 66.78125 272.808594 66.804688 273.160156 66.804688 "/>
</g>
</svg>
